<svg width="0" height="0" class="hidden">
    <symbol xmlns="http://www.w3.org/2000/svg" viewBox="0,0,256,256" id="github_icon">
        <g fill="none" fill-rule="nonzero" stroke="none" stroke-width="1" stroke-linecap="butt" stroke-linejoin="miter"
           stroke-miterlimit="10" stroke-dasharray="" stroke-dashoffset="0">
            <g transform="scale(3.2,3.2)">
                <path d="M76.999,40.001c0,17.44 -12.02,31.86 -27.97,35.89c-2.9,0.72 -5.92,1.11 -9.03,1.11c-3.08,0 -6.09,-0.38 -8.97,-1.1c-15.98,-4 -28.03,-18.44 -28.03,-35.9c0,-20.6 16.4,-37 37,-37c20.6,0 37,16.4 37,37z"
                      fill="#221be4"></path>
                <circle cx="39.999" cy="40.001" r="37" fill="none"></circle>
                <path d="M64.029,38.521c0,4.49 -2.32,10.73 -6.13,13.83c-3.08,2.51 -7.15,3.3 -11.75,3.55c1.73,1.05 2.88,2.95 2.88,5.12v14.87c-2.9,0.72 -5.92,1.11 -9.03,1.11c-3.08,0 -6.09,-0.38 -8.97,-1.1v-9.77c-1.25,0.39 -2.89,0.62 -5,0.51c-7,-0.37 -8,-4.62 -9.12,-7.62c-1.13,-3 -4.63,-3.38 -4.13,-4.62c2.416,-0.829 4.314,-0.039 5.597,0.938c1.018,0.776 1.728,1.871 2.203,3.06c0.543,1.358 1.986,3.622 5.57,3.622c2.53,0 4.03,-0.59 4.89,-1.17c0.05,-2.12 1.21,-3.96 2.91,-4.97c-4.88,-0.31 -9.16,-1.23 -12.31,-3.97c-3.5,-3.04 -5.61,-9.11 -5.61,-13.39c0,-3.57 1.47,-7.97 3.99,-10.74c0.08,-0.08 0.15,-0.17 0.25,-0.25c-0.58,-1.74 -1.25,-5.18 0.38,-9.39c4.85,-0.09 8.68,2.56 10.24,3.84c2.82,-0.65 5.9,-0.96 9.14,-0.96c3.32,0 6.49,0.29 9.36,0.96c1.56,-1.28 5.4,-3.93 10.24,-3.83c1.7,4.38 0.91,7.93 0.32,9.59c2.58,2.97 4.08,7.18 4.08,10.78z"
                      fill="#ffffff"></path>
                <path d="M39.999,3.001c-20.6,0 -37,16.4 -37,37c0,20.6 16.78,37 37,37c20.22,0 37,-16.4 37,-37c0,-20.6 -16.4,-37 -37,-37zM39.999,76.001c-19.85,0 -36,-16.15 -36,-36c0,-9.7 3.72,-18.76 10.48,-25.52c6.76,-6.76 15.83,-10.48 25.52,-10.48c9.7,0 18.76,3.72 25.52,10.48c6.76,6.76 10.48,15.82 10.48,25.52c0,19.85 -16.15,36 -36,36z"
                      fill="#ffffff"></path>
            </g>
        </g>
    </symbol>
    <symbol xmlns="http://www.w3.org/2000/svg" viewBox="0 0 76 27" id="logo">
        <g stroke-linecap="round" fill-rule="evenodd" fill="#221be4">
            <path d="M 75.499 25.796 L 71.632 25.796 L 71.632 8.921 Q 71.632 6.808 70.245 6.741 A 1.913 1.913 0 0 0 70.152 6.738 A 2.069 2.069 0 0 0 69.564 6.817 A 1.533 1.533 0 0 0 68.775 7.354 A 2.023 2.023 0 0 0 68.445 7.996 Q 68.354 8.28 68.317 8.625 A 4.716 4.716 0 0 0 68.292 9.126 L 68.292 25.796 L 64.41 25.796 L 64.41 8.892 Q 64.41 6.738 62.974 6.738 A 1.978 1.978 0 0 0 62.376 6.824 A 1.52 1.52 0 0 0 61.546 7.463 A 2.736 2.736 0 0 0 61.184 8.315 Q 61.095 8.673 61.075 9.092 A 5.174 5.174 0 0 0 61.07 9.331 L 61.07 25.796 L 57.188 25.796 L 57.188 3.823 L 61.07 3.823 L 61.07 6.211 A 4.123 4.123 0 0 1 61.519 5.149 A 3.383 3.383 0 0 1 62.286 4.27 Q 63.165 3.56 64.586 3.56 A 4.071 4.071 0 0 1 65.887 3.755 Q 67.261 4.216 67.838 5.771 Q 68.897 3.798 71.04 3.585 A 5.403 5.403 0 0 1 71.573 3.56 A 4.865 4.865 0 0 1 72.726 3.687 A 2.99 2.99 0 0 1 74.569 4.937 Q 75.499 6.313 75.499 8.965 L 75.499 25.796 Z M 10.152 9.932 L 10.152 11.133 L 6.68 11.133 L 6.68 9.683 Q 6.68 8.188 6.344 7.463 Q 6.007 6.738 5.223 6.738 Q 4.67 6.738 4.321 6.964 A 1.112 1.112 0 0 0 4.066 7.192 Q 3.736 7.593 3.697 8.494 A 5.815 5.815 0 0 0 3.692 8.745 A 3.968 3.968 0 0 0 4.377 10.95 A 5.986 5.986 0 0 0 5.245 11.982 L 7.325 13.872 A 11.793 11.793 0 0 1 9.151 15.997 A 7.953 7.953 0 0 1 10.533 20.449 Q 10.533 22.242 10.015 23.463 A 4.24 4.24 0 0 1 9.259 24.668 Q 8.196 25.84 6.157 26.035 A 8.968 8.968 0 0 1 5.303 26.074 A 7.419 7.419 0 0 1 3.8 25.932 Q 2.92 25.75 2.254 25.333 A 3.777 3.777 0 0 1 1.348 24.543 A 4.576 4.576 0 0 1 0.584 23.169 Q 0.125 21.91 0.079 20.048 A 17.058 17.058 0 0 1 0.074 19.629 L 0.074 18.208 L 3.721 18.208 L 3.721 19.98 A 8.627 8.627 0 0 0 3.772 20.957 Q 3.996 22.91 5.216 22.91 Q 5.811 22.91 6.157 22.615 A 1.11 1.11 0 0 0 6.358 22.39 A 1.559 1.559 0 0 0 6.542 22 Q 6.71 21.486 6.71 20.625 A 4.853 4.853 0 0 0 5.86 17.911 Q 5.413 17.234 4.732 16.594 A 9.356 9.356 0 0 0 4.688 16.553 Q 4.637 16.502 3.953 15.89 A 501.689 501.689 0 0 0 3.743 15.703 Q 2.954 14.999 2.752 14.805 A 2.515 2.515 0 0 1 2.711 14.766 A 8.881 8.881 0 0 1 0.956 12.612 A 7.274 7.274 0 0 1 0.001 8.95 Q 0.001 4.281 3.89 3.656 A 8.176 8.176 0 0 1 5.186 3.56 A 7.135 7.135 0 0 1 6.595 3.689 Q 8.119 3.997 8.958 5.032 Q 10.152 6.504 10.152 9.932 Z M 32.755 18.486 L 32.755 10.298 Q 32.755 4.321 37.168 3.646 A 7.913 7.913 0 0 1 38.365 3.56 Q 40.166 3.56 41.299 4.203 A 3.432 3.432 0 0 1 42.503 5.332 A 6.187 6.187 0 0 1 43.226 6.945 Q 43.46 7.73 43.565 8.681 A 15.318 15.318 0 0 1 43.653 10.371 L 43.653 15.073 L 36.666 15.073 L 36.666 19.395 Q 36.666 21.31 36.944 22.058 A 1.308 1.308 0 0 0 37.061 22.302 A 1.271 1.271 0 0 0 37.976 22.905 A 1.768 1.768 0 0 0 38.248 22.925 Q 39.039 22.925 39.273 22.559 Q 39.669 21.914 39.727 21.24 A 12.418 12.418 0 0 0 39.758 20.77 Q 39.782 20.28 39.785 19.616 A 44.046 44.046 0 0 0 39.786 19.395 L 39.786 17.461 L 43.624 17.461 L 43.624 18.633 A 30.581 30.581 0 0 1 43.594 20.022 Q 43.507 21.947 43.155 22.925 A 8.138 8.138 0 0 1 42.852 23.661 Q 42.508 24.384 42.099 24.787 A 2.362 2.362 0 0 1 42.071 24.814 A 4.044 4.044 0 0 1 40.527 25.726 Q 39.538 26.06 38.204 26.06 A 7.391 7.391 0 0 1 36.445 25.866 Q 34.218 25.32 33.428 23.232 A 9.167 9.167 0 0 1 33.021 21.738 Q 32.873 20.961 32.807 20.046 A 21.787 21.787 0 0 1 32.755 18.486 Z M 20.069 25.942 L 17.432 25.942 A 8.393 8.393 0 0 1 16.518 25.896 Q 15.575 25.793 15.035 25.455 A 1.655 1.655 0 0 1 14.678 25.159 A 2.198 2.198 0 0 1 14.278 24.484 Q 13.975 23.71 13.975 22.441 L 13.975 7.09 L 12.188 7.09 L 12.188 4.277 L 13.975 4.277 L 13.975 0 L 17.857 0 L 17.857 4.277 L 19.996 4.277 L 19.996 7.09 L 17.857 7.09 L 17.857 21.768 A 2.314 2.314 0 0 0 17.879 22.101 Q 17.938 22.501 18.151 22.688 A 0.605 0.605 0 0 0 18.26 22.764 A 1.104 1.104 0 0 0 18.504 22.855 Q 18.992 22.983 20.069 22.983 L 20.069 25.942 Z M 54.815 6.021 L 54.801 6.841 Q 53.629 6.841 52.501 7.236 Q 51.782 7.488 51.378 7.877 A 1.692 1.692 0 0 0 51.021 8.364 L 51.021 25.796 L 47.11 25.796 L 47.11 3.823 L 51.021 3.823 L 51.021 6.27 A 4.196 4.196 0 0 1 51.505 5.188 A 3.443 3.443 0 0 1 52.362 4.27 A 3.546 3.546 0 0 1 53.821 3.644 A 4.928 4.928 0 0 1 54.757 3.56 A 0.051 0.051 0 0 1 54.77 3.598 Q 54.809 3.827 54.814 5.421 A 168.717 168.717 0 0 1 54.815 6.021 Z M 29.254 16.113 L 22.252 16.113 L 22.252 13.55 L 29.254 13.55 L 29.254 16.113 Z M 36.651 10.093 L 36.651 12.803 L 39.786 12.803 L 39.786 9.99 Q 39.786 8.188 39.5 7.405 A 1.281 1.281 0 0 0 39.251 6.977 Q 39.011 6.713 38.623 6.645 A 1.663 1.663 0 0 0 38.336 6.621 L 38.321 6.621 Q 36.818 6.621 36.684 8.89 A 7.017 7.017 0 0 0 36.68 8.95 A 10.806 10.806 0 0 0 36.665 9.251 Q 36.651 9.604 36.651 10.077 A 32.496 32.496 0 0 0 36.651 10.093 Z"
                  vector-effect="non-scaling-stroke"></path>
        </g>
    </symbol>
    <symbol xmlns="http://www.w3.org/2000/svg" viewBox="0,0,256,256" id="telegram_icon">
        <g fill="#221be4" fill-rule="nonzero" stroke="none" stroke-width="1" stroke-linecap="butt"
           stroke-linejoin="miter" stroke-miterlimit="10" stroke-dasharray="" stroke-dashoffset="0">
            <g transform="scale(5.12,5.12)">
                <path d="M25,2c12.703,0 23,10.297 23,23c0,12.703 -10.297,23 -23,23c-12.703,0 -23,-10.297 -23,-23c0,-12.703 10.297,-23 23,-23zM32.934,34.375c0.423,-1.298 2.405,-14.234 2.65,-16.783c0.074,-0.772 -0.17,-1.285 -0.648,-1.514c-0.578,-0.278 -1.434,-0.139 -2.427,0.219c-1.362,0.491 -18.774,7.884 -19.78,8.312c-0.954,0.405 -1.856,0.847 -1.856,1.487c0,0.45 0.267,0.703 1.003,0.966c0.766,0.273 2.695,0.858 3.834,1.172c1.097,0.303 2.346,0.04 3.046,-0.395c0.742,-0.461 9.305,-6.191 9.92,-6.693c0.614,-0.502 1.104,0.141 0.602,0.644c-0.502,0.502 -6.38,6.207 -7.155,6.997c-0.941,0.959 -0.273,1.953 0.358,2.351c0.721,0.454 5.906,3.932 6.687,4.49c0.781,0.558 1.573,0.811 2.298,0.811c0.725,0 1.107,-0.955 1.468,-2.064z"></path>
            </g>
        </g>
    </symbol>
    <symbol xmlns="http://www.w3.org/2000/svg" viewBox="0,0,256,256" id="whatsapp_icon">
        <g fill="#221be4" fill-rule="nonzero" stroke="none" stroke-width="1" stroke-linecap="butt"
           stroke-linejoin="miter" stroke-miterlimit="10" stroke-dasharray="" stroke-dashoffset="0" font-family="none">
            <g transform="scale(5.12,5.12)">
                <path d="M25,2c-12.69047,0 -23,10.30953 -23,23c0,4.0791 1.11869,7.88588 2.98438,11.20898l-2.94727,10.52148c-0.09582,0.34262 -0.00241,0.71035 0.24531,0.96571c0.24772,0.25536 0.61244,0.35989 0.95781,0.27452l10.9707,-2.71875c3.22369,1.72098 6.88165,2.74805 10.78906,2.74805c12.69047,0 23,-10.30953 23,-23c0,-12.69047 -10.30953,-23 -23,-23zM25,4c11.60953,0 21,9.39047 21,21c0,11.60953 -9.39047,21 -21,21c-3.72198,0 -7.20788,-0.97037 -10.23828,-2.66602c-0.22164,-0.12385 -0.48208,-0.15876 -0.72852,-0.09766l-9.60742,2.38086l2.57617,-9.19141c0.07449,-0.26248 0.03851,-0.54399 -0.09961,-0.7793c-1.84166,-3.12289 -2.90234,-6.75638 -2.90234,-10.64648c0,-11.60953 9.39047,-21 21,-21zM16.64258,13c-0.64104,0 -1.55653,0.23849 -2.30859,1.04883c-0.45172,0.48672 -2.33398,2.32068 -2.33398,5.54492c0,3.36152 2.33139,6.2621 2.61328,6.63477h0.00195v0.00195c-0.02674,-0.03514 0.3578,0.52172 0.87109,1.18945c0.5133,0.66773 1.23108,1.54472 2.13281,2.49414c1.80347,1.89885 4.33914,4.09336 7.48633,5.43555c1.44932,0.61717 2.59271,0.98981 3.45898,1.26172c1.60539,0.5041 3.06762,0.42747 4.16602,0.26563c0.82216,-0.12108 1.72641,-0.51584 2.62109,-1.08203c0.89469,-0.56619 1.77153,-1.2702 2.1582,-2.33984c0.27701,-0.76683 0.41783,-1.47548 0.46875,-2.05859c0.02546,-0.29156 0.02869,-0.54888 0.00977,-0.78711c-0.01897,-0.23823 0.0013,-0.42071 -0.2207,-0.78516c-0.46557,-0.76441 -0.99283,-0.78437 -1.54297,-1.05664c-0.30567,-0.15128 -1.17595,-0.57625 -2.04883,-0.99219c-0.8719,-0.41547 -1.62686,-0.78344 -2.0918,-0.94922c-0.29375,-0.10568 -0.65243,-0.25782 -1.16992,-0.19922c-0.51749,0.0586 -1.0286,0.43198 -1.32617,0.87305c-0.28205,0.41807 -1.4175,1.75835 -1.76367,2.15234c-0.0046,-0.0028 0.02544,0.01104 -0.11133,-0.05664c-0.42813,-0.21189 -0.95173,-0.39205 -1.72656,-0.80078c-0.77483,-0.40873 -1.74407,-1.01229 -2.80469,-1.94727v-0.00195c-1.57861,-1.38975 -2.68437,-3.1346 -3.0332,-3.7207c0.0235,-0.02796 -0.00279,0.0059 0.04687,-0.04297l0.00195,-0.00195c0.35652,-0.35115 0.67247,-0.77056 0.93945,-1.07812c0.37854,-0.43609 0.54559,-0.82052 0.72656,-1.17969c0.36067,-0.71583 0.15985,-1.50352 -0.04883,-1.91797v-0.00195c0.01441,0.02867 -0.11288,-0.25219 -0.25,-0.57617c-0.13751,-0.32491 -0.31279,-0.74613 -0.5,-1.19531c-0.37442,-0.89836 -0.79243,-1.90595 -1.04102,-2.49609v-0.00195c-0.29285,-0.69513 -0.68904,-1.1959 -1.20703,-1.4375c-0.51799,-0.2416 -0.97563,-0.17291 -0.99414,-0.17383h-0.00195c-0.36964,-0.01705 -0.77527,-0.02148 -1.17773,-0.02148zM16.64258,15c0.38554,0 0.76564,0.0047 1.08398,0.01953c0.32749,0.01632 0.30712,0.01766 0.24414,-0.01172c-0.06399,-0.02984 0.02283,-0.03953 0.20898,0.40234c0.24341,0.57785 0.66348,1.58909 1.03906,2.49023c0.18779,0.45057 0.36354,0.87343 0.50391,1.20508c0.14036,0.33165 0.21642,0.51683 0.30469,0.69336v0.00195l0.00195,0.00195c0.08654,0.17075 0.07889,0.06143 0.04883,0.12109c-0.21103,0.41883 -0.23966,0.52166 -0.45312,0.76758c-0.32502,0.37443 -0.65655,0.792 -0.83203,0.96484c-0.15353,0.15082 -0.43055,0.38578 -0.60352,0.8457c-0.17323,0.46063 -0.09238,1.09262 0.18555,1.56445c0.37003,0.62819 1.58941,2.6129 3.48438,4.28125c1.19338,1.05202 2.30519,1.74828 3.19336,2.2168c0.88817,0.46852 1.61157,0.74215 1.77344,0.82227c0.38438,0.19023 0.80448,0.33795 1.29297,0.2793c0.48849,-0.05865 0.90964,-0.35504 1.17773,-0.6582l0.00195,-0.00195c0.3568,-0.40451 1.41702,-1.61513 1.92578,-2.36133c0.02156,0.0076 0.0145,0.0017 0.18359,0.0625v0.00195h0.00195c0.0772,0.02749 1.04413,0.46028 1.90625,0.87109c0.86212,0.41081 1.73716,0.8378 2.02148,0.97852c0.41033,0.20308 0.60422,0.33529 0.6543,0.33594c0.00338,0.08798 0.0068,0.18333 -0.00586,0.32813c-0.03507,0.40164 -0.14243,0.95757 -0.35742,1.55273c-0.10532,0.29136 -0.65389,0.89227 -1.3457,1.33008c-0.69181,0.43781 -1.53386,0.74705 -1.8457,0.79297c-0.9376,0.13815 -2.05083,0.18859 -3.27344,-0.19531c-0.84773,-0.26609 -1.90476,-0.61053 -3.27344,-1.19336c-2.77581,-1.18381 -5.13503,-3.19825 -6.82031,-4.97266c-0.84264,-0.8872 -1.51775,-1.71309 -1.99805,-2.33789c-0.4794,-0.62364 -0.68874,-0.94816 -0.86328,-1.17773l-0.00195,-0.00195c-0.30983,-0.40973 -2.20703,-3.04868 -2.20703,-5.42578c0,-2.51576 1.1685,-3.50231 1.80078,-4.18359c0.33194,-0.35766 0.69484,-0.41016 0.8418,-0.41016z"></path>
            </g>
        </g>
    </symbol>
    <symbol fill="none" xmlns="http://www.w3.org/2000/svg" viewBox="0 0 16 12" id="calendar_icon">
        <path d="M5.33341 6.5C5.1566 6.5 4.98703 6.44732 4.86201 6.35355C4.73699 6.25979 4.66675 6.13261 4.66675 6C4.66675 5.86739 4.73699 5.74021 4.86201 5.64645C4.98703 5.55268 5.1566 5.5 5.33341 5.5C5.51023 5.5 5.67979 5.55268 5.80482 5.64645C5.92984 5.74021 6.00008 5.86739 6.00008 6C6.00008 6.13261 5.92984 6.25979 5.80482 6.35355C5.67979 6.44732 5.51023 6.5 5.33341 6.5ZM5.33341 8.5C5.1566 8.5 4.98703 8.44732 4.86201 8.35355C4.73699 8.25979 4.66675 8.13261 4.66675 8C4.66675 7.86739 4.73699 7.74021 4.86201 7.64645C4.98703 7.55268 5.1566 7.5 5.33341 7.5C5.51023 7.5 5.67979 7.55268 5.80482 7.64645C5.92984 7.74021 6.00008 7.86739 6.00008 8C6.00008 8.13261 5.92984 8.25979 5.80482 8.35355C5.67979 8.44732 5.51023 8.5 5.33341 8.5ZM7.33341 8C7.33341 8.13261 7.40365 8.25979 7.52868 8.35355C7.6537 8.44732 7.82327 8.5 8.00008 8.5C8.17689 8.5 8.34646 8.44732 8.47149 8.35355C8.59651 8.25979 8.66675 8.13261 8.66675 8C8.66675 7.86739 8.59651 7.74021 8.47149 7.64645C8.34646 7.55268 8.17689 7.5 8.00008 7.5C7.82327 7.5 7.6537 7.55268 7.52868 7.64645C7.40365 7.74021 7.33341 7.86739 7.33341 8ZM10.6667 8.5C10.4899 8.5 10.3204 8.44732 10.1953 8.35355C10.0703 8.25979 10.0001 8.13261 10.0001 8C10.0001 7.86739 10.0703 7.74021 10.1953 7.64645C10.3204 7.55268 10.4899 7.5 10.6667 7.5C10.8436 7.5 11.0131 7.55268 11.1382 7.64645C11.2632 7.74021 11.3334 7.86739 11.3334 8C11.3334 8.13261 11.2632 8.25979 11.1382 8.35355C11.0131 8.44732 10.8436 8.5 10.6667 8.5ZM7.33341 6C7.33341 6.13261 7.40365 6.25979 7.52868 6.35355C7.6537 6.44732 7.82327 6.5 8.00008 6.5C8.17689 6.5 8.34646 6.44732 8.47149 6.35355C8.59651 6.25979 8.66675 6.13261 8.66675 6C8.66675 5.86739 8.59651 5.74021 8.47149 5.64645C8.34646 5.55268 8.17689 5.5 8.00008 5.5C7.82327 5.5 7.6537 5.55268 7.52868 5.64645C7.40365 5.74021 7.33341 5.86739 7.33341 6ZM10.6667 6.5C10.4899 6.5 10.3204 6.44732 10.1953 6.35355C10.0703 6.25979 10.0001 6.13261 10.0001 6C10.0001 5.86739 10.0703 5.74021 10.1953 5.64645C10.3204 5.55268 10.4899 5.5 10.6667 5.5C10.8436 5.5 11.0131 5.55268 11.1382 5.64645C11.2632 5.74021 11.3334 5.86739 11.3334 6C11.3334 6.13261 11.2632 6.25979 11.1382 6.35355C11.0131 6.44732 10.8436 6.5 10.6667 6.5ZM5.33341 3.5C5.1566 3.5 4.98703 3.55268 4.86201 3.64645C4.73699 3.74021 4.66675 3.86739 4.66675 4C4.66675 4.13261 4.73699 4.25979 4.86201 4.35355C4.98703 4.44732 5.1566 4.5 5.33341 4.5H10.6667C10.8436 4.5 11.0131 4.44732 11.1382 4.35355C11.2632 4.25979 11.3334 4.13261 11.3334 4C11.3334 3.86739 11.2632 3.74021 11.1382 3.64645C11.0131 3.55268 10.8436 3.5 10.6667 3.5H5.33341Z"
              fill="#A7A7A7"></path>
        <path fill-rule="evenodd" clip-rule="evenodd"
              d="M4 1.5C3.46957 1.5 2.96086 1.65804 2.58579 1.93934C2.21071 2.22064 2 2.60218 2 3V9C2 9.39782 2.21071 9.77936 2.58579 10.0607C2.96086 10.342 3.46957 10.5 4 10.5H12C12.5304 10.5 13.0391 10.342 13.4142 10.0607C13.7893 9.77936 14 9.39782 14 9V3C14 2.60218 13.7893 2.22064 13.4142 1.93934C13.0391 1.65804 12.5304 1.5 12 1.5H4ZM12 2.5H4C3.82319 2.5 3.65362 2.55268 3.5286 2.64645C3.40357 2.74021 3.33333 2.86739 3.33333 3V9C3.33333 9.13261 3.40357 9.25979 3.5286 9.35355C3.65362 9.44732 3.82319 9.5 4 9.5H12C12.1768 9.5 12.3464 9.44732 12.4714 9.35355C12.5964 9.25979 12.6667 9.13261 12.6667 9V3C12.6667 2.86739 12.5964 2.74021 12.4714 2.64645C12.3464 2.55268 12.1768 2.5 12 2.5Z"
              fill="#A7A7A7"></path>
    </symbol>
    <symbol fill="none" xmlns="http://www.w3.org/2000/svg" viewBox="0 0 16 12" id="location_icon">
        <path d="M8 6.75C7.50555 6.75 7.0222 6.64003 6.61108 6.43401C6.19995 6.22798 5.87952 5.93514 5.6903 5.59253C5.50108 5.24992 5.45157 4.87292 5.54804 4.50921C5.6445 4.14549 5.8826 3.8114 6.23223 3.54918C6.58187 3.28695 7.02732 3.10838 7.51228 3.03603C7.99723 2.96368 8.4999 3.00081 8.95671 3.14273C9.41353 3.28464 9.80397 3.52496 10.0787 3.83331C10.3534 4.14165 10.5 4.50416 10.5 4.875C10.4992 5.3721 10.2356 5.84867 9.76689 6.20017C9.29822 6.55167 8.6628 6.74941 8 6.75ZM8 3.75C7.70333 3.75 7.41332 3.81598 7.16665 3.9396C6.91997 4.06321 6.72771 4.23892 6.61418 4.44448C6.50065 4.65005 6.47095 4.87625 6.52882 5.09448C6.5867 5.31271 6.72956 5.51316 6.93934 5.6705C7.14912 5.82783 7.41639 5.93498 7.70737 5.97838C7.99834 6.02179 8.29994 5.99951 8.57403 5.91437C8.84812 5.82922 9.08238 5.68502 9.24721 5.50002C9.41203 5.31501 9.5 5.09751 9.5 4.875C9.4996 4.57672 9.34144 4.29075 9.06022 4.07983C8.779 3.86892 8.3977 3.7503 8 3.75Z"
              fill="#A7A7A7"></path>
        <path d="M8.00001 11.25L3.78201 7.51912C3.7234 7.4631 3.66539 7.40673 3.60801 7.35C2.8875 6.63817 2.49826 5.76871 2.50001 4.875C2.50001 3.78098 3.07947 2.73177 4.11092 1.95818C5.14237 1.1846 6.54132 0.75 8.00001 0.75C9.4587 0.75 10.8576 1.1846 11.8891 1.95818C12.9205 2.73177 13.5 3.78098 13.5 4.875C13.5018 5.7683 13.1127 6.63737 12.3925 7.34888L12.392 7.35C12.392 7.35 12.242 7.49775 12.2195 7.51763L8.00001 11.25ZM4.40601 6.89813C4.40701 6.89813 4.52301 7.01362 4.54951 7.03837L8.00001 10.0905L11.455 7.03425C11.477 7.01362 11.594 6.89738 11.5945 6.897C12.1831 6.31542 12.5012 5.60514 12.5 4.875C12.5 3.97989 12.0259 3.12145 11.182 2.48851C10.3381 1.85558 9.19348 1.5 8.00001 1.5C6.80653 1.5 5.66194 1.85558 4.81803 2.48851C3.97411 3.12145 3.50001 3.97989 3.50001 4.875C3.49896 5.60559 3.81739 6.31628 4.40651 6.89813H4.40601Z"
              fill="#A7A7A7"></path>
    </symbol>
    <symbol fill="none" xmlns="http://www.w3.org/2000/svg" viewBox="0 0 16 12" id="office_icon">
        <path d="M3.3335 1.5V10.5H7.3335V8.75H8.66683V10.5H12.6668V1.5H3.3335ZM4.66683 2.5H6.00016V3.5H4.66683V2.5ZM7.3335 2.5H8.66683V3.5H7.3335V2.5ZM10.0002 2.5H11.3335V3.5H10.0002V2.5ZM4.66683 4.5H6.00016V5.5H4.66683V4.5ZM7.3335 4.5H8.66683V5.5H7.3335V4.5ZM10.0002 4.5H11.3335V5.5H10.0002V4.5ZM4.66683 6.5H6.00016V7.5H4.66683V6.5ZM7.3335 6.5H8.66683V7.5H7.3335V6.5ZM10.0002 6.5H11.3335V7.5H10.0002V6.5ZM4.66683 8.5H6.00016V9.5H4.66683V8.5ZM10.0002 8.5H11.3335V9.5H10.0002V8.5Z"
              fill="#A7A7A7"></path>
    </symbol>
    <symbol id="link_icon" viewBox="0 0 20 20" fill="none" xmlns="http://www.w3.org/2000/svg">
        <path d="M11.2864 8.71333C10.6038 8.03103 9.67822 7.64774 8.71309 7.64774C7.74797 7.64774 6.82235 8.03103 6.13976 8.71333L3.56559 11.2867C2.88299 11.9693 2.49951 12.8951 2.49951 13.8604C2.49951 14.8258 2.88299 15.7516 3.56559 16.4342C4.24819 17.1168 5.174 17.5002 6.13934 17.5002C7.10469 17.5002 8.03049 17.1168 8.71309 16.4342L9.99976 15.1475"
              stroke="black" stroke-width="1.66667" stroke-linecap="round" stroke-linejoin="round"/>
        <path d="M8.71289 11.2867C9.39548 11.969 10.3211 12.3523 11.2862 12.3523C12.2513 12.3523 13.177 11.969 13.8596 11.2867L16.4337 8.71334C17.1163 8.03074 17.4998 7.10493 17.4998 6.13959C17.4998 5.17424 17.1163 4.24844 16.4337 3.56584C15.7511 2.88324 14.8253 2.49976 13.86 2.49976C12.8946 2.49976 11.9688 2.88324 11.2862 3.56584L9.99956 4.8525"
              stroke="black" stroke-width="1.66667" stroke-linecap="round" stroke-linejoin="round"/>
    </symbol>
    <symbol id="link_github_icon" viewBox="0 0 20 20" fill="none" xmlns="http://www.w3.org/2000/svg">
        <g clip-path="url(#clip0_4537_874)">
            <path fill-rule="evenodd" clip-rule="evenodd"
                  d="M10 0C4.475 0 0 4.475 0 10C0 14.425 2.8625 18.1625 6.8375 19.4875C7.3375 19.575 7.525 19.275 7.525 19.0125C7.525 18.775 7.5125 17.9875 7.5125 17.15C5 17.6125 4.35 16.5375 4.15 15.975C4.0375 15.6875 3.55 14.8 3.125 14.5625C2.775 14.375 2.275 13.9125 3.1125 13.9C3.9 13.8875 4.4625 14.625 4.65 14.925C5.55 16.4375 6.9875 16.0125 7.5625 15.75C7.65 15.1 7.9125 14.6625 8.2 14.4125C5.975 14.1625 3.65 13.3 3.65 9.475C3.65 8.3875 4.0375 7.4875 4.675 6.7875C4.575 6.5375 4.225 5.5125 4.775 4.1375C4.775 4.1375 5.6125 3.875 7.525 5.1625C8.325 4.9375 9.175 4.825 10.025 4.825C10.875 4.825 11.725 4.9375 12.525 5.1625C14.4375 3.8625 15.275 4.1375 15.275 4.1375C15.825 5.5125 15.475 6.5375 15.375 6.7875C16.0125 7.4875 16.4 8.375 16.4 9.475C16.4 13.3125 14.0625 14.1625 11.8375 14.4125C12.2 14.725 12.5125 15.325 12.5125 16.2625C12.5125 17.6 12.5 18.675 12.5 19.0125C12.5 19.275 12.6875 19.5875 13.1875 19.4875C15.1726 18.8173 16.8976 17.5414 18.1197 15.8395C19.3418 14.1375 19.9994 12.0952 20 10C20 4.475 15.525 0 10 0Z"
                  fill="black"/>
        </g>
        <defs>
            <clipPath id="clip0_4537_874">
                <rect width="20" height="20" fill="white"/>
            </clipPath>
        </defs>
    </symbol>
    <symbol id="menu" xmlns="http://www.w3.org/2000/svg" viewBox="0,0,256,256">
        <g fill="#221be4" fill-rule="nonzero" stroke="none" stroke-width="1" stroke-linecap="butt"
           stroke-linejoin="miter" stroke-miterlimit="10" stroke-dasharray="" stroke-dashoffset="0"
           font-family="none" font-size="none" style="mix-blend-mode: normal">
            <g transform="scale(5.12,5.12)">
                <path d="M5,8c-0.72127,-0.0102 -1.39216,0.36875 -1.75578,0.99175c-0.36361,0.623 -0.36361,1.39351 0,2.01651c0.36361,0.623 1.0345,1.00195 1.75578,0.99175h40c0.72127,0.0102 1.39216,-0.36875 1.75578,-0.99175c0.36361,-0.623 0.36361,-1.39351 0,-2.01651c-0.36361,-0.623 -1.0345,-1.00195 -1.75578,-0.99175zM5,23c-0.72127,-0.0102 -1.39216,0.36875 -1.75578,0.99175c-0.36361,0.623 -0.36361,1.39351 0,2.01651c0.36361,0.623 1.0345,1.00195 1.75578,0.99175h40c0.72127,0.0102 1.39216,-0.36875 1.75578,-0.99175c0.36361,-0.623 0.36361,-1.39351 0,-2.01651c-0.36361,-0.623 -1.0345,-1.00195 -1.75578,-0.99175zM5,38c-0.72127,-0.0102 -1.39216,0.36875 -1.75578,0.99175c-0.36361,0.623 -0.36361,1.39351 0,2.01651c0.36361,0.623 1.0345,1.00195 1.75578,0.99175h40c0.72127,0.0102 1.39216,-0.36875 1.75578,-0.99175c0.36361,-0.623 0.36361,-1.39351 0,-2.01651c-0.36361,-0.623 -1.0345,-1.00195 -1.75578,-0.99175z"></path>
            </g>
        </g>
    </symbol>
    <symbol id="close_icon" xmlns="http://www.w3.org/2000/svg" viewBox="0,0,256,256">
        <g fill="#221be4" fill-rule="nonzero" stroke="none" stroke-width="1" stroke-linecap="butt"
           stroke-linejoin="miter" stroke-miterlimit="10" stroke-dasharray="" stroke-dashoffset="0"
           font-family="none" font-weight="none" font-size="none" text-anchor="none" style="mix-blend-mode: normal">
            <g transform="scale(5.12,5.12)">
                <path d="M9.15625,6.3125l-2.84375,2.84375l15.84375,15.84375l-15.9375,15.96875l2.8125,2.8125l15.96875,-15.9375l15.9375,15.9375l2.84375,-2.84375l-15.9375,-15.9375l15.84375,-15.84375l-2.84375,-2.84375l-15.84375,15.84375z"></path>
            </g>
        </g>
    </symbol>
</svg>